<?xml version="1.0" encoding="UTF-8"?>
<svg id="Camada_2" data-name="Camada 2" xmlns="http://www.w3.org/2000/svg" xmlns:xlink="http://www.w3.org/1999/xlink" viewBox="0 0 84.53 80.34">
  <defs>
    <style>
      .cls-1 {
        fill: url(#Degradado_sin_nombre_9-2);
      }

      .cls-2 {
        fill: url(#Degradado_sin_nombre_9-3);
      }

      .cls-3 {
        fill: url(#Degradado_sin_nombre_4);
      }

      .cls-4 {
        fill: url(#Degradado_sin_nombre_9);
      }
    </style>
    <linearGradient id="Degradado_sin_nombre_4" data-name="Degradado sin nombre 4" x1="17.41" y1="29.81" x2="83.7" y2="29.81" gradientTransform="translate(6.89 -.39) scale(.87 .84)" gradientUnits="userSpaceOnUse">
      <stop offset="0" stop-color="#eb297c"/>
      <stop offset="1" stop-color="#af0e5b"/>
    </linearGradient>
    <linearGradient id="Degradado_sin_nombre_9" data-name="Degradado sin nombre 9" x1="61.53" y1="73.11" x2="75.99" y2="73.11" gradientUnits="userSpaceOnUse">
      <stop offset="0" stop-color="#30bfd8"/>
      <stop offset="1" stop-color="#097b8e"/>
      <stop offset="1" stop-color="#000"/>
    </linearGradient>
    <linearGradient id="Degradado_sin_nombre_9-2" data-name="Degradado sin nombre 9" x1="0" y1="32.2" x2="84.53" y2="32.2" xlink:href="#Degradado_sin_nombre_9"/>
    <linearGradient id="Degradado_sin_nombre_9-3" data-name="Degradado sin nombre 9" x1="24.18" x2="38.64" xlink:href="#Degradado_sin_nombre_9"/>
  </defs>
  <g id="TEXTS">
    <g>
      <rect class="cls-3" x="22.11" y="11.01" width="57.91" height="27.07" rx="5.29" ry="5.29"/>
      <g>
        <path class="cls-4" d="m72.81,67.12c-1.15-.78-2.55-1.24-4.04-1.24-.99,0-1.95.2-2.82.57-1.3.55-2.4,1.46-3.18,2.62-.78,1.15-1.24,2.55-1.24,4.04,0,.99.2,1.95.57,2.82.55,1.3,1.46,2.4,2.62,3.18,1.15.78,2.55,1.24,4.04,1.24.99,0,1.95-.2,2.82-.57,1.3-.55,2.4-1.46,3.18-2.62.78-1.15,1.24-2.55,1.24-4.04,0-.99-.2-1.95-.57-2.82-.55-1.3-1.46-2.4-2.62-3.18Zm-.48,7.5c-.29.69-.79,1.29-1.4,1.71-.62.42-1.36.66-2.16.66-.54,0-1.04-.11-1.51-.3-.69-.29-1.29-.79-1.71-1.4-.42-.62-.66-1.36-.66-2.16,0-.54.11-1.04.3-1.51.29-.69.79-1.29,1.4-1.71.62-.42,1.36-.66,2.16-.66.54,0,1.04.11,1.51.3.69.29,1.29.79,1.71,1.4.42.62.66,1.36.66,2.16,0,.54-.11,1.04-.3,1.51Z"/>
        <path class="cls-1" d="m84.47,21.82l-1.36,5.09-.38,1.41-.04.16-.1.39-.28,1.05-.38,1.39-.32,1.19-.65,2.45-.35,1.32-.17.62-.92,3.45-3.24,12.1c-.02.07-.04.13-.06.19,0,0,0,.01-.01.02,0,0,0,.01-.01.01-.02.07-.05.13-.09.19,0,0,0,.02,0,.03-.04.06-.08.12-.13.18-.02.02-.03.04-.05.06h0s-.06.08-.1.11c0,0-.01.01-.02.02-.04.04-.08.07-.12.1,0,0-.02.02-.03.02-.04.03-.07.05-.1.07-.02.01-.03.02-.05.03-.03.02-.07.04-.1.05-.02.01-.03.02-.04.02-.05.02-.1.04-.15.06-.01,0-.02,0-.03,0-.04.01-.08.02-.13.03-.01.01-.03.01-.05.02-.04,0-.08,0-.12,0-.01.01-.03.01-.05.01-.05.01-.11.01-.16.01H26.04l-3.77,2.67v4.68h58.22c.93,0,1.68.75,1.68,1.68s-.75,1.67-1.68,1.67H20.59c-.92,0-1.67-.75-1.67-1.67v-7.23c0-.55.26-1.06.7-1.37l4.13-2.93-7.86-29.37-2.95-11.06L.79,3.1C0,2.6-.23,1.56.26.78.76,0,1.79-.24,2.58.26l12.71,8.02c.35.22.61.57.72.98l2.8,10.45h64.04c.52,0,1.01.24,1.33.65.32.42.43.96.29,1.46Z"/>
        <path class="cls-2" d="m37.94,76.22c.06-.12.11-.24.16-.36,0-.02.02-.04.03-.06.05-.12.09-.24.14-.37,0-.03.02-.05.03-.08.04-.13.08-.25.11-.38,0-.02,0-.04.01-.06.03-.12.06-.25.09-.38,0-.02,0-.03.01-.05.03-.13.05-.27.07-.4,0-.03,0-.05.01-.08.02-.13.03-.27.04-.4,0-.02,0-.05,0-.07,0-.14.01-.28.01-.43,0-.12,0-.23,0-.35,0-.04,0-.08,0-.12,0-.08,0-.15-.02-.22,0-.05-.01-.09-.02-.14,0-.07-.02-.13-.03-.2,0-.05-.01-.1-.02-.14-.01-.07-.02-.13-.03-.19,0-.05-.02-.1-.03-.14-.01-.07-.03-.13-.04-.19-.01-.05-.02-.09-.03-.14-.02-.07-.04-.14-.06-.21-.01-.04-.02-.08-.03-.11-.03-.11-.07-.21-.11-.31,0,0,0,0,0,0-.04-.11-.08-.22-.13-.33-.05-.11-.1-.22-.15-.32-.01-.02-.02-.05-.03-.07,0-.02-.02-.03-.02-.04-.02-.05-.05-.09-.07-.14-.03-.06-.07-.13-.1-.19-.02-.04-.05-.08-.07-.11-.02-.03-.04-.06-.05-.09-.07-.12-.15-.23-.23-.35,0,0,0,0,0,0,0,0-.01-.02-.02-.03-.03-.05-.07-.09-.1-.14-.06-.09-.13-.17-.2-.26-.04-.05-.09-.1-.13-.15-.05-.05-.09-.11-.14-.16-.02-.02-.04-.04-.06-.06-.05-.06-.11-.11-.16-.16-.04-.04-.08-.09-.12-.13-.04-.04-.09-.08-.14-.13,0,0,0,0-.01,0,0,0,0,0-.01-.01-.11-.1-.23-.2-.34-.29-.02-.02-.05-.04-.07-.05-.02-.01-.04-.03-.06-.05-.03-.02-.06-.04-.09-.06-.03-.02-.06-.05-.1-.07,0,0,0,0,0,0-.05-.03-.1-.07-.15-.11-1.15-.78-2.55-1.24-4.04-1.24-.99,0-1.95.2-2.82.57-1.3.55-2.4,1.46-3.18,2.62-.78,1.15-1.24,2.55-1.24,4.04,0,.99.2,1.95.57,2.82.55,1.3,1.46,2.4,2.62,3.18,1.15.78,2.55,1.24,4.04,1.24.7,0,1.37-.1,2.01-.29,0,0,0,0,0,0,.03,0,.06-.02.09-.03.03,0,.05-.02.08-.02.02,0,.05-.01.07-.02.05-.02.11-.04.16-.06.03-.01.06-.02.09-.03.1-.04.21-.08.31-.12.15-.06.3-.13.44-.21.04-.02.09-.05.13-.07.07-.04.14-.07.21-.11.04-.02.09-.05.13-.08.01,0,.03-.02.04-.02.01,0,.03-.02.04-.03.07-.04.14-.09.2-.14.07-.04.13-.09.2-.13,0,0,.02-.01.03-.02.11-.08.21-.16.31-.24.01-.01.03-.02.04-.03,0,0,.01,0,.02-.01.03-.02.05-.04.08-.06.04-.04.08-.07.13-.11.03-.03.07-.06.1-.1.05-.04.09-.09.14-.13.07-.07.15-.15.22-.22.04-.04.08-.09.12-.13.07-.08.15-.17.22-.26.03-.04.07-.08.1-.12.1-.13.2-.26.29-.4.03-.05.07-.1.1-.16,0,0,0-.01.01-.02.07-.1.13-.21.19-.32,0,0,.01-.02.01-.02,0-.01.01-.02.02-.04.06-.12.13-.24.19-.36,0,0,0-.01,0-.02Zm-4.37.1c-.08.05-.16.1-.24.15-.03.02-.06.03-.1.05-.05.03-.1.06-.15.08-.05.02-.1.04-.15.07-.04.02-.07.03-.11.05-.05.02-.11.04-.16.06-.03.01-.07.03-.1.04-.06.02-.12.03-.18.05-.03,0-.07.02-.1.03-.06.01-.12.02-.18.03-.04,0-.07.01-.11.02-.09.01-.17.02-.26.03-.02,0-.04,0-.06,0-.09,0-.18.01-.27.01-.07,0-.14,0-.2,0-.02,0-.03,0-.05,0-.05,0-.1,0-.15-.01-.02,0-.05,0-.07,0-.04,0-.09-.01-.13-.02-.03,0-.05,0-.08-.01-.04,0-.08-.01-.12-.02-.25-.05-.48-.13-.71-.22-.69-.29-1.29-.79-1.71-1.4-.42-.62-.66-1.36-.66-2.16,0-.54.11-1.04.3-1.51.29-.69.79-1.29,1.4-1.71.62-.42,1.36-.66,2.16-.66.18,0,.35.01.53.04.07,0,.13.02.2.03.01,0,.03,0,.04,0,.08.02.15.03.23.05.02,0,.04.01.05.02.06.02.12.04.18.05.02,0,.04.01.06.02.07.03.15.05.22.08.08.04.17.07.25.12.03.01.05.03.08.04.05.03.11.06.16.09.03.02.06.04.09.06.05.03.09.06.14.09.03.02.06.05.09.07.04.03.08.06.13.1.03.03.06.05.09.08.04.03.08.07.11.1.03.03.06.06.09.09.04.04.07.07.1.11.03.03.06.06.08.09.03.04.06.07.09.11.03.03.05.07.08.1.04.05.08.1.12.16.04.07.09.13.13.2.02.04.04.07.06.11.02.04.05.09.07.13.01.03.03.06.04.09.02.04.04.09.06.13.02.05.04.1.06.15.02.06.04.11.06.17.02.06.04.13.05.19,0,.03.02.06.03.1,0,0,0,.02,0,.03.02.08.03.15.04.23,0,.03,0,.05.01.08,0,.06.02.13.02.2,0,.03,0,.05,0,.08,0,.09.01.18.01.27,0,.12,0,.24-.02.35,0,0,0,.02,0,.03-.01.11-.03.22-.05.32,0,.01,0,.03,0,.04-.02.1-.04.2-.07.3,0,.02,0,.03-.01.05-.03.1-.06.19-.1.29-.02.04-.03.08-.05.12-.29.69-.79,1.29-1.4,1.71Z"/>
      </g>
    </g>
  </g>
</svg>